<?xml version="1.0" encoding="utf-8"?>
<!-- Generator: Adobe Illustrator 21.1.0, SVG Export Plug-In . SVG Version: 6.00 Build 0)  -->
<svg version="1.1" id="Icons" xmlns="http://www.w3.org/2000/svg" xmlns:xlink="http://www.w3.org/1999/xlink" x="0px" y="0px"
	 viewBox="0 0 48 48" style="enable-background:new 0 0 48 48;" xml:space="preserve">
<style type="text/css">
	.st0{fill:#FFE500;}
	.st1{fill:#EBCB00;}
	.st2{fill:#FFF48C;}
	.st3{opacity:0.15;fill:#45413C;}
	.st4{fill:none;stroke:#45413C;stroke-linecap:round;stroke-linejoin:round;stroke-miterlimit:10;}
	.st5{fill:#FFAA54;}
	.st6{fill:#FFB0CA;stroke:#45413C;stroke-linecap:round;stroke-linejoin:round;stroke-miterlimit:10;}
	.st7{fill:#FF87AF;stroke:#45413C;stroke-linecap:round;stroke-linejoin:round;stroke-miterlimit:10;}
	.st8{fill:#00B8F0;}
	.st9{fill:#4ACFFF;}
	.st10{fill:#FFFFFF;stroke:#45413C;stroke-linecap:round;stroke-linejoin:round;stroke-miterlimit:10;}
	.st11{fill:#45413C;stroke:#45413C;stroke-linecap:round;stroke-linejoin:round;stroke-miterlimit:10;}
	.st12{fill:#009FD9;}
	.st13{fill:none;stroke:#45413C;stroke-linecap:round;stroke-miterlimit:10;}
	.st14{fill:#FFFFFF;stroke:#45413C;stroke-linejoin:round;stroke-miterlimit:10;}
	.st15{fill:#FF6242;}
	.st16{fill:#FF866E;}
	.st17{fill:#656769;}
	.st18{fill:#87898C;}
	.st19{fill:#4AEFF7;stroke:#45413C;stroke-linecap:round;stroke-linejoin:round;stroke-miterlimit:10;}
	.st20{fill:none;stroke:#48CF3E;stroke-linecap:round;stroke-linejoin:round;stroke-miterlimit:10;}
	.st21{fill:none;stroke:#FF4064;stroke-linecap:round;stroke-linejoin:round;stroke-miterlimit:10;}
	.st22{fill:none;stroke:#FFB700;stroke-linecap:round;stroke-linejoin:round;stroke-miterlimit:10;}
	.st23{fill:none;stroke:#00AED9;stroke-linecap:round;stroke-linejoin:round;stroke-miterlimit:10;}
	.st24{fill:#FFFACF;}
	.st25{fill:#45413C;}
	.st26{fill:#FF866E;stroke:#45413C;stroke-linecap:round;stroke-linejoin:round;stroke-miterlimit:10;}
	.st27{fill:#DABFF5;stroke:#45413C;stroke-linejoin:round;stroke-miterlimit:10;}
	.st28{fill:#EDDBFF;}
	.st29{fill:none;stroke:#45413C;stroke-linejoin:round;stroke-miterlimit:10;}
	.st30{fill:#6DD627;}
	.st31{fill:#46B000;}
	.st32{fill:#C8FFA1;}
	.st33{fill:url(#XMLID_91_);}
	.st34{fill:url(#XMLID_92_);}
	.st35{fill:#F0F0F0;stroke:#45413C;stroke-linecap:round;stroke-linejoin:round;stroke-miterlimit:10;}
	.st36{fill:#EBCB00;stroke:#45413C;stroke-linecap:round;stroke-linejoin:round;stroke-miterlimit:10;}
	.st37{fill:#BDBEC0;stroke:#45413C;stroke-linecap:round;stroke-linejoin:round;stroke-miterlimit:10;}
	.st38{fill:#F0F0F0;}
	.st39{fill:#FFFFFF;}
	.st40{fill:url(#XMLID_93_);}
	.st41{fill:url(#XMLID_94_);}
	.st42{fill:#FFE500;stroke:#45413C;stroke-linecap:round;stroke-linejoin:round;stroke-miterlimit:10;}
	.st43{fill:#E04122;}
	.st44{fill:#8CFFE4;stroke:#45413C;stroke-linecap:round;stroke-linejoin:round;stroke-miterlimit:10;}
	.st45{fill:#E5FFF9;}
	.st46{fill:#E0E0E0;}
	.st47{fill:#9CEB60;}
	.st48{fill:#6DD627;stroke:#45413C;stroke-linecap:round;stroke-linejoin:round;stroke-miterlimit:10;}
	.st49{fill:#E8F4FA;}
	.st50{fill:#F0D5A8;}
	.st51{fill:#DEBB7E;}
	.st52{fill:#B89558;}
	.st53{fill:#00B8F0;stroke:#45413C;stroke-linecap:round;stroke-linejoin:round;stroke-miterlimit:10;}
	.st54{fill:#FFFCE5;}
	.st55{fill:#FF87AF;}
	.st56{fill:#4ACFFF;stroke:#45413C;stroke-linecap:round;stroke-linejoin:round;stroke-miterlimit:10;}
	.st57{fill:#E5F8FF;}
	.st58{fill:none;stroke:#45413C;stroke-miterlimit:10;}
	.st59{fill:none;stroke:#FF6242;stroke-linecap:round;stroke-linejoin:round;stroke-miterlimit:10;}
	.st60{fill:#BDBEC0;}
	.st61{fill:#B89558;stroke:#45413C;stroke-linecap:round;stroke-linejoin:round;stroke-miterlimit:10;}
	.st62{fill:#FF6242;stroke:#45413C;stroke-linecap:round;stroke-linejoin:round;stroke-miterlimit:10;}
	.st63{fill:#525252;stroke:#45413C;stroke-linecap:round;stroke-linejoin:round;stroke-miterlimit:10;}
	.st64{fill:#525252;}
	.st65{fill:#00DBA8;}
	.st66{fill:#00AD85;}
	.st67{fill:#BF8DF2;}
	.st68{fill:#DABFF5;}
	.st69{fill:#00F5BC;}
	.st70{fill:#DAEDF7;}
	.st71{fill:#C0DCEB;}
	.st72{fill:#ADC4D9;}
	.st73{fill:#ADC4D9;stroke:#45413C;stroke-linecap:round;stroke-linejoin:round;stroke-miterlimit:10;}
	.st74{fill:#00DFEB;stroke:#45413C;stroke-linecap:round;stroke-linejoin:round;stroke-miterlimit:10;}
	.st75{fill:#627B8C;stroke:#45413C;stroke-linecap:round;stroke-linejoin:round;stroke-miterlimit:10;}
	.st76{fill:#8CA4B8;}
	.st77{fill:#00DBA8;stroke:#45413C;stroke-linecap:round;stroke-linejoin:round;stroke-miterlimit:10;}
	.st78{fill:#FF8A14;}
	.st79{fill:#BF8256;}
	.st80{fill:#DEA47A;}
	.st81{fill:#915E3A;}
	.st82{fill:#FFA694;}
	.st83{fill:#E5FEFF;stroke:#45413C;stroke-linecap:round;stroke-linejoin:round;stroke-miterlimit:10;}
	.st84{fill:#803EC2;stroke:#45413C;stroke-linecap:round;stroke-linejoin:round;stroke-miterlimit:10;}
	.st85{fill:#9F5AE5;}
	.st86{fill:#803EC2;}
</style>
<g id="XMLID_4714_">
	<circle id="XMLID_4752_" class="st0" cx="19.3" cy="22.3" r="17.8"/>
	<path id="XMLID_4749_" class="st1" d="M19.3,4.5c-9.8,0-17.8,8-17.8,17.8S9.5,40,19.3,40S37,32.1,37,22.3S29.1,4.5,19.3,4.5z
		 M19.3,37.4c-9,0-16.2-7.3-16.2-16.2c0-9,7.3-16.2,16.2-16.2s16.2,7.3,16.2,16.2C35.5,30.1,28.2,37.4,19.3,37.4z"/>
	<ellipse id="XMLID_4748_" class="st2" cx="19.3" cy="8.1" rx="5.3" ry="1.3"/>
	<circle id="XMLID_4744_" class="st11" cx="11.7" cy="23.2" r="0.9"/>
	<path id="XMLID_4743_" class="st4" d="M15.1,21.8c0,0-2.7-4-5.6-2.7"/>
	<path id="XMLID_4742_" class="st4" d="M23.4,21.8c0,0,2.7-4,5.6-2.7"/>
	<circle id="XMLID_4741_" class="st11" cx="26.8" cy="23.2" r="0.9"/>
	<path id="XMLID_4740_" class="st13" d="M14.8,31.2c1.3-0.9,2.8-1.3,4.4-1.3c1.6,0,3.2,0.5,4.4,1.3"/>
	<ellipse id="XMLID_4722_" class="st5" cx="29.9" cy="27.2" rx="2.2" ry="1.3"/>
	<ellipse id="XMLID_4721_" class="st5" cx="8.6" cy="27.2" rx="2.2" ry="1.3"/>
	<ellipse id="XMLID_4720_" class="st3" cx="18.9" cy="44.5" rx="14.2" ry="1.5"/>
	<circle id="XMLID_4719_" class="st4" cx="19.3" cy="22.3" r="17.8"/>
	<path class="st38" d="M33.5,11.6H3.2c-0.3,0-0.5,0.1-0.7,0.3c-0.8,1-1.4,2.1-2,3.3c-0.1,0.3-0.1,0.6,0.1,0.8
		c0.2,0.3,0.4,0.4,0.7,0.4h34.7C35.5,14.7,34.6,13.1,33.5,11.6z"/>
	<path class="st39" d="M33.5,11.6H3.2c-0.3,0-0.5,0.1-0.7,0.3c-0.3,0.5-0.7,0.9-1,1.4h33.1C34.3,12.8,33.9,12.2,33.5,11.6z"/>
	<path class="st4" d="M33.5,11.6H3.2c-0.3,0-0.5,0.1-0.7,0.3c-0.8,1-1.4,2.1-2,3.3c-0.1,0.3-0.1,0.6,0.1,0.8
		c0.2,0.3,0.4,0.4,0.7,0.4h34.7C35.5,14.7,34.6,13.1,33.5,11.6z"/>
	<path id="XMLID_4718_" class="st10" d="M34.4,14.3c0,0,4.9,5.5,12.1,4.8c0.6-0.1,1.1,0.5,0.9,1.1c-0.5,1.5-1.3,3.3-1.8,4.2
		c-0.2,0.4-0.7,0.6-1.1,0.4C42.1,24,34.5,20.6,34.4,14.3z"/>
	<path id="XMLID_4717_" class="st10" d="M34.3,12.9c0,0,1.7,8.8,7.1,14.3c0.4,0.4,0.3,1.2-0.3,1.4c-2.3,0.9-4.7,1.1-5.9,1.2
		c-0.5,0-0.9-0.3-0.9-0.8C33.8,26.2,32.5,16.1,34.3,12.9z"/>
	<path id="XMLID_4716_" class="st38" d="M37.5,14.1c0,1.6-1.3,2.9-2.9,2.9h-0.4c-1.6,0-2.9-1.3-2.9-2.9s1.3-2.9,2.9-2.9h0.4
		C36.2,11.2,37.5,12.5,37.5,14.1z"/>
	<path class="st39" d="M34.2,12.9h0.4c1.3,0,2.4,0.8,2.7,2c0.1-0.3,0.1-0.6,0.1-0.9c0-1.6-1.3-2.9-2.9-2.9h-0.4
		c-1.6,0-2.9,1.3-2.9,2.9c0,0.3,0,0.6,0.1,0.9C31.8,13.8,32.9,12.9,34.2,12.9z"/>
	<path id="XMLID_4715_" class="st4" d="M37.5,14.1c0,1.6-1.3,2.9-2.9,2.9h-0.4c-1.6,0-2.9-1.3-2.9-2.9s1.3-2.9,2.9-2.9h0.4
		C36.2,11.2,37.5,12.5,37.5,14.1z"/>
</g>
</svg>
